<svg width="21" height="21" viewBox="0 0 21 21" fill="none" xmlns="http://www.w3.org/2000/svg">
<path d="M17.5 9.29199H3.5M17.5 9.29199C18.6046 9.29199 19.5 10.1874 19.5 11.292V17.292C19.5 18.3966 18.6046 19.292 17.5 19.292H3.5C2.39543 19.292 1.5 18.3966 1.5 17.292V11.292C1.5 10.1874 2.39543 9.29199 3.5 9.29199M17.5 9.29199V7.29199C17.5 6.18742 16.6046 5.29199 15.5 5.29199M3.5 9.29199V7.29199C3.5 6.18742 4.39543 5.29199 5.5 5.29199M5.5 5.29199V3.29199C5.5 2.18742 6.39543 1.29199 7.5 1.29199H13.5C14.6046 1.29199 15.5 2.18742 15.5 3.29199V5.29199M5.5 5.29199H15.5" stroke="currentColor" stroke-width="1.5" stroke-linecap="round" stroke-linejoin="round" />
</svg>
