<svg width="4" height="16" viewBox="0 0 4 16" fill="none" xmlns="http://www.w3.org/2000/svg">
<path fill-rule="evenodd" clip-rule="evenodd" d="M0 2.00003C0 0.895461 0.895431 3.05176e-05 2 3.05176e-05C3.10457 3.05176e-05 4 0.895461 4 2.00003C4 3.1046 3.10457 4.00003 2 4.00003C0.895431 4.00003 0 3.1046 0 2.00003ZM0 8.00003C0 6.89546 0.895431 6.00003 2 6.00003C3.10457 6.00003 4 6.89546 4 8.00003C4 9.1046 3.10457 10 2 10C0.895431 10 0 9.1046 0 8.00003ZM0 14C0 12.8955 0.895431 12 2 12C3.10457 12 4 12.8955 4 14C4 15.1046 3.10457 16 2 16C0.895431 16 0 15.1046 0 14Z" fill="currentColor"/>
</svg>
