<svg width="22" height="21" viewBox="0 0 22 21" fill="none" xmlns="http://www.w3.org/2000/svg">
<path d="M2 1.49976L5.58916 5.08891M20 19.4998L16.4112 15.9109M12.8749 17.3244C12.2677 17.4395 11.6411 17.4998 11.0005 17.4998C6.52281 17.4998 2.73251 14.5568 1.45825 10.4997C1.80515 9.39525 2.33851 8.37336 3.02143 7.47094M8.87868 8.37844C9.42157 7.83554 10.1716 7.49976 11 7.49976C12.6569 7.49976 14 8.8429 14 10.4998C14 11.3282 13.6642 12.0782 13.1213 12.6211M8.87868 8.37844L13.1213 12.6211M8.87868 8.37844L5.58916 5.08891M13.1213 12.6211L5.58916 5.08891M13.1213 12.6211L16.4112 15.9109M5.58916 5.08891C7.14898 4.0833 9.00656 3.49976 11.0004 3.49976C15.4781 3.49976 19.2684 6.44267 20.5426 10.4998C19.8357 12.7505 18.3545 14.6583 16.4112 15.9109" stroke="currentColor" stroke-width="1.5" stroke-linecap="round" stroke-linejoin="round"/>
</svg>
