<svg width="20" height="21" viewBox="0 0 20 21" fill="none" xmlns="http://www.w3.org/2000/svg">
<path d="M1 10.2915L3 8.2915M3 8.2915L10 1.2915L17 8.2915M3 8.2915V18.2915C3 18.8438 3.44772 19.2915 4 19.2915H7M17 8.2915L19 10.2915M17 8.2915V18.2915C17 18.8438 16.5523 19.2915 16 19.2915H13M7 19.2915C7.55228 19.2915 8 18.8438 8 18.2915V14.2915C8 13.7392 8.44772 13.2915 9 13.2915H11C11.5523 13.2915 12 13.7392 12 14.2915V18.2915C12 18.8438 12.4477 19.2915 13 19.2915M7 19.2915H13" stroke="currentColor" stroke-width="1.5" stroke-linecap="round" stroke-linejoin="round"/>
</svg>
