<svg width="16" height="18" viewBox="0 0 16 18" fill="none" xmlns="http://www.w3.org/2000/svg">
<path fill-rule="evenodd" clip-rule="evenodd" d="M3.78486 1.3522C3.79758 1.35899 3.81034 1.36579 3.82313 1.37261L13.861 6.72615C14.2581 6.93788 14.6149 7.12816 14.8862 7.30643C15.1574 7.48465 15.4987 7.74622 15.6906 8.16212C15.9359 8.69384 15.9359 9.3063 15.6906 9.83802C15.4987 10.2539 15.1574 10.5155 14.8862 10.6937C14.6149 10.8719 14.2581 11.0622 13.8612 11.2739L3.78446 16.6481C3.42896 16.8378 3.10404 17.0111 2.82831 17.1273C2.5453 17.2465 2.16895 17.3718 1.74416 17.317C1.19132 17.2457 0.693299 16.9469 0.370189 16.4926C0.121988 16.1437 0.0553482 15.7526 0.0273145 15.4467C-5.89825e-05 15.1481 -2.97758e-05 14.7789 2.17227e-06 14.375L4.31804e-06 3.66671C4.31804e-06 3.65279 3.24516e-06 3.63892 2.17227e-06 3.62508C-2.97758e-05 3.22116 -5.89825e-05 2.85205 0.0273152 2.55339C0.0553521 2.24751 0.122 1.85648 0.370189 1.50753C0.693312 1.05322 1.19134 0.754473 1.74416 0.683173C2.16891 0.62839 2.54523 0.753627 2.82826 0.872857C3.10412 0.989063 3.42918 1.16246 3.78486 1.3522ZM2.02219 2.7038C2.0211 2.71374 2.02002 2.72444 2.01897 2.73594C2.00101 2.9319 2 3.20732 2 3.66671V14.3334C2 14.7928 2.00101 15.0682 2.01897 15.2642C2.02002 15.2757 2.0211 15.2864 2.02219 15.2963C2.03139 15.2927 2.04125 15.2886 2.05179 15.2842C2.23312 15.2078 2.47649 15.0791 2.88196 14.8628L12.882 9.52947C13.3292 9.29093 13.6029 9.14384 13.7879 9.02225C13.7999 9.01439 13.8109 9.00699 13.821 9.00006C13.8109 8.99313 13.7999 8.98574 13.7879 8.97788C13.6029 8.85629 13.3292 8.70919 12.882 8.47065L2.88196 3.13732C2.47651 2.92108 2.23314 2.79237 2.05183 2.71599C2.04127 2.71155 2.0314 2.70749 2.02219 2.7038Z" fill="currentColor"/>
</svg>
