<svg width="21" height="19" viewBox="0 0 21 19" fill="none" xmlns="http://www.w3.org/2000/svg">
<path d="M3.5 9.29199H17.5M3.5 9.29199C2.39543 9.29199 1.5 8.39656 1.5 7.29199V3.29199C1.5 2.18742 2.39543 1.29199 3.5 1.29199H17.5C18.6046 1.29199 19.5 2.18742 19.5 3.29199V7.29199C19.5 8.39656 18.6046 9.29199 17.5 9.29199M3.5 9.29199C2.39543 9.29199 1.5 10.1874 1.5 11.292V15.292C1.5 16.3966 2.39543 17.292 3.5 17.292H17.5C18.6046 17.292 19.5 16.3966 19.5 15.292V11.292C19.5 10.1874 18.6046 9.29199 17.5 9.29199M15.5 5.29199H15.51M15.5 13.292H15.51" stroke="currentColor" stroke-width="1.5" stroke-linecap="round" stroke-linejoin="round"/>
</svg>
