<svg width="25" height="25" viewBox="0 0 25 25" fill="none" xmlns="http://www.w3.org/2000/svg">
<path fill-rule="evenodd" clip-rule="evenodd" d="M17.9697 3.76166C18.2626 3.46877 18.7374 3.46877 19.0303 3.76166L22.0303 6.76166C22.3232 7.05456 22.3232 7.52943 22.0303 7.82232L19.0303 10.8223C18.7374 11.1152 18.2626 11.1152 17.9697 10.8223C17.6768 10.5294 17.6768 10.0546 17.9697 9.76166L19.6893 8.04199H16.5C14.7051 8.04199 13.25 9.49707 13.25 11.292V14.292C13.25 16.3631 11.5711 18.042 9.5 18.042C9.08579 18.042 8.75 17.7062 8.75 17.292C8.75 16.8778 9.08579 16.542 9.5 16.542C10.7426 16.542 11.75 15.5346 11.75 14.292V11.292C11.75 8.66864 13.8766 6.54199 16.5 6.54199H19.6893L17.9697 4.82232C17.6768 4.52943 17.6768 4.05456 17.9697 3.76166Z" fill="currentColor"/>
<path d="M6.5 13.542C4.42893 13.542 2.75 15.2209 2.75 17.292C2.75 19.3631 4.42893 21.042 6.5 21.042C8.57107 21.042 10.25 19.3631 10.25 17.292C10.25 15.2209 8.57107 13.542 6.5 13.542Z" fill="transparent" stroke="currentColor" stroke-width="1.5" stroke-linecap="round" stroke-linejoin="round"/>
</svg>
