<svg width="22" height="22" viewBox="0 0 22 22"  xmlns="http://www.w3.org/2000/svg">
<path fill-rule="evenodd" clip-rule="evenodd" d="M8.075 2.5965C7.93581 2.56527 7.79122 2.5642 7.65139 2.59341C7.53099 2.61856 7.3953 2.68333 6.74107 3.06304L6.25341 3.34607C5.60298 3.72358 5.48031 3.80873 5.39892 3.90034C5.30444 4.00668 5.23377 4.13184 5.19158 4.26739C5.15513 4.38451 5.1454 4.53439 5.15804 5.28582L5.16518 5.71048C5.16531 5.71799 5.16544 5.72553 5.16558 5.73308C5.16639 5.77904 5.16721 5.82553 5.16655 5.87022C5.15945 6.35002 5.03727 6.8209 4.81069 7.24347C4.78807 7.28565 4.76439 7.32663 4.73754 7.3731L4.7275 7.39048C4.7001 7.43792 4.67637 7.47901 4.6509 7.52005C4.39789 7.9277 4.05073 8.26894 3.63839 8.51481C3.59517 8.54058 3.553 8.56397 3.49958 8.59358L3.13801 8.79394C2.476 9.16081 2.35091 9.24393 2.26753 9.33441C2.17044 9.43975 2.0972 9.5644 2.05271 9.69963C2.01428 9.81643 2.00265 9.96601 2.00437 10.7232L2.00565 11.2854C2.00735 12.0379 2.01938 12.186 2.05787 12.3019C2.10257 12.4366 2.17546 12.5602 2.27178 12.6647C2.35466 12.7546 2.47881 12.8372 3.13602 13.2028L3.50713 13.4093C3.55648 13.4367 3.60119 13.4616 3.6451 13.488C4.05407 13.7343 4.39751 14.0743 4.64814 14.4793C4.67549 14.5234 4.701 14.568 4.72995 14.6186L4.73582 14.6289C4.73961 14.6355 4.74339 14.6421 4.74717 14.6487C4.77218 14.6923 4.79702 14.7356 4.81962 14.7784C5.03958 15.1948 5.1585 15.6573 5.16653 16.1284C5.16742 16.1807 5.16655 16.232 5.16553 16.2923L5.15853 16.7073C5.14578 17.4625 5.15523 17.6119 5.19181 17.729C5.23416 17.8647 5.30525 17.9902 5.40041 18.0968C5.48228 18.1886 5.60588 18.2739 6.25952 18.6506L6.75322 18.9351C7.40501 19.3107 7.54095 19.3749 7.66106 19.3998C7.80037 19.4286 7.94406 19.4274 8.0827 19.3963C8.2021 19.3695 8.33542 19.3034 8.98186 18.9163L9.33568 18.7045C9.38968 18.6721 9.43136 18.6472 9.47566 18.6226C9.89286 18.3907 10.3594 18.2614 10.837 18.2461C10.8855 18.2445 10.9335 18.2445 10.988 18.2445H11.0101C11.0647 18.2445 11.1132 18.2445 11.1619 18.2461C11.6403 18.2615 12.1079 18.3911 12.5259 18.6241C12.5694 18.6484 12.6112 18.6734 12.6605 18.7031L12.6661 18.7064L13.0221 18.9202C13.6708 19.3096 13.8052 19.3762 13.9252 19.4031C14.0647 19.4344 14.2087 19.4355 14.3483 19.4064C14.4687 19.3812 14.6047 19.3163 15.2587 18.9367L15.7464 18.6537C16.3969 18.2762 16.5196 18.191 16.601 18.0994C16.6955 17.993 16.7662 17.8679 16.8083 17.7324C16.8448 17.6153 16.8544 17.4658 16.8417 16.714L16.8346 16.2893C16.8345 16.2823 16.8344 16.2754 16.8342 16.2684C16.8334 16.2213 16.8326 16.1748 16.8333 16.1296C16.8404 15.6501 16.9623 15.1792 17.189 14.7563C17.2116 14.7141 17.2353 14.6731 17.2622 14.6266L17.2676 14.6173C17.2997 14.5617 17.3231 14.5214 17.3491 14.4797C17.602 14.0721 17.9489 13.731 18.3614 13.485C18.4019 13.4609 18.4432 13.438 18.4885 13.4129L18.8622 13.2058C19.524 12.8391 19.6491 12.7558 19.7325 12.6653C19.8292 12.5604 19.9024 12.4359 19.947 12.3002C19.9856 12.1831 19.9976 12.0325 19.9959 11.2766L19.9946 10.7145C19.9929 9.96285 19.9806 9.81393 19.942 9.69779C19.8974 9.56338 19.8245 9.43967 19.728 9.33503C19.6451 9.24509 19.5209 9.16233 18.8639 8.79688L18.4915 8.58967C18.4418 8.56206 18.3996 8.53855 18.3572 8.51317C17.9474 8.2677 17.6024 7.92801 17.3506 7.52255C17.3246 7.48076 17.3012 7.44079 17.268 7.38336L17.2625 7.37376C17.2353 7.32665 17.2112 7.285 17.1883 7.24219C16.9622 6.82008 16.8406 6.35016 16.8333 5.87167C16.8326 5.8255 16.8334 5.77807 16.8342 5.72956C16.8344 5.72286 16.8345 5.71615 16.8346 5.70942L16.8416 5.29241C16.8543 4.53769 16.8447 4.38798 16.8081 4.27072C16.7655 4.13427 16.6945 4.00891 16.5999 3.90289C16.5182 3.81136 16.3947 3.72651 15.7401 3.34927L15.2463 3.06471C14.5941 2.68891 14.4588 2.62485 14.3388 2.60001C14.1993 2.57114 14.0556 2.57235 13.9171 2.60343C13.7977 2.63023 13.6644 2.69633 13.0179 3.08345L12.6641 3.29531C12.609 3.32833 12.5679 3.35277 12.524 3.37715C12.1067 3.60917 11.64 3.73834 11.1625 3.75367C11.1139 3.75523 11.066 3.75522 11.0115 3.75521H10.989C10.9347 3.75522 10.887 3.75523 10.8384 3.75367C10.3601 3.73828 9.89202 3.60862 9.4739 3.37555C9.43214 3.35227 9.39131 3.32774 9.34639 3.30077L8.97794 3.07956C8.32905 2.69 8.19492 2.62341 8.075 2.5965ZM7.24248 0.635659C7.66157 0.548122 8.09489 0.551243 8.51284 0.645018C8.98937 0.751932 9.41781 1.00991 9.90432 1.30286C9.93838 1.32336 9.97271 1.34403 10.0074 1.36484L10.3634 1.57861C10.4257 1.61599 10.4371 1.62271 10.4477 1.62862C10.587 1.70627 10.7432 1.74957 10.9027 1.7547C10.9151 1.7551 10.9288 1.75521 11.0005 1.75521C11.0719 1.75521 11.086 1.75509 11.0983 1.7547C11.2573 1.74959 11.4129 1.70658 11.5521 1.62916C11.5643 1.62237 11.5799 1.61339 11.6366 1.5794L11.9905 1.36754C12.0253 1.3467 12.0597 1.326 12.0939 1.30547C12.578 1.01472 13.0047 0.758485 13.479 0.652002C13.8954 0.558523 14.3267 0.555119 14.7442 0.641513C15.221 0.740211 15.6525 0.98959 16.1434 1.27324C16.1769 1.29263 16.2107 1.31217 16.2449 1.33184L16.7387 1.6164C16.7737 1.63658 16.8085 1.65655 16.8429 1.67635C17.3343 1.95866 17.7675 2.20753 18.0921 2.57129C18.3771 2.89062 18.5899 3.26694 18.7172 3.67466C18.8627 4.14059 18.8537 4.64013 18.8434 5.20832C18.8427 5.24724 18.842 5.28648 18.8413 5.32606L18.8343 5.74306C18.833 5.81785 18.8329 5.82948 18.833 5.8411C18.8355 6.00079 18.8761 6.15738 18.9513 6.29792C18.9572 6.3088 18.9642 6.32115 18.9999 6.38297C19.0318 6.43833 19.0416 6.4546 19.0495 6.46722C19.1336 6.60258 19.2486 6.71574 19.385 6.79744C19.3957 6.80391 19.4086 6.81125 19.47 6.84539L19.8362 7.04912C19.8709 7.06839 19.9052 7.08746 19.9393 7.10636C20.4338 7.38063 20.8688 7.62192 21.1983 7.97928C21.4868 8.29216 21.7058 8.66307 21.8402 9.06766C21.9933 9.5291 21.9939 10.0267 21.9944 10.5925C21.9945 10.6313 21.9945 10.6705 21.9946 10.7099L21.9959 11.272C21.996 11.3108 21.9961 11.3492 21.9962 11.3873C21.9982 11.9587 21.9999 12.4599 21.8469 12.9252C21.713 13.3321 21.4936 13.7057 21.2032 14.0208C20.8717 14.3804 20.4335 14.6225 19.9349 14.898C19.9008 14.9169 19.8663 14.9359 19.8316 14.9551L19.47 15.1555C19.4076 15.1901 19.3959 15.1967 19.3857 15.2028C19.2485 15.2846 19.1329 15.3981 19.0484 15.5343C19.041 15.5463 19.0317 15.5618 18.9994 15.6177C18.9642 15.6786 18.9573 15.6907 18.9516 15.7014C18.8761 15.8422 18.8354 15.9992 18.833 16.1592C18.8329 16.1705 18.8331 16.1812 18.8343 16.2539L18.8415 16.6803C18.8421 16.7193 18.8428 16.7579 18.8435 16.7962C18.8537 17.3634 18.8627 17.8616 18.718 18.3267C18.5913 18.7339 18.3791 19.1092 18.0961 19.4278C17.7728 19.7917 17.3419 20.041 16.8514 20.3249C16.818 20.3443 16.7843 20.3638 16.7503 20.3835L16.2627 20.6665C16.2285 20.6864 16.1945 20.7061 16.1609 20.7257C15.6687 21.0122 15.2358 21.2641 14.7572 21.3641C14.3377 21.4517 13.9049 21.4483 13.4873 21.3546C13.0105 21.2477 12.5819 20.9896 12.0948 20.6963C12.0611 20.676 12.027 20.6555 11.9927 20.6349L11.6366 20.4211C11.5763 20.3849 11.5632 20.3772 11.5522 20.3711C11.4128 20.2934 11.257 20.2502 11.0976 20.2451C11.0852 20.2447 11.0707 20.2445 10.9991 20.2445C10.9276 20.2445 10.9135 20.2447 10.9012 20.2451C10.9011 20.2451 10.9012 20.2451 10.9012 20.2451C10.7423 20.2502 10.5869 20.2931 10.4475 20.3706C10.4357 20.3772 10.4211 20.3857 10.3631 20.4204L10.0093 20.6322C9.97462 20.653 9.94026 20.6736 9.90618 20.6941C9.42185 20.985 8.9952 21.2412 8.52077 21.3477C8.10452 21.4411 7.6733 21.4447 7.25572 21.3583C6.77843 21.2595 6.34644 21.0098 5.85467 20.7257C5.82161 20.7066 5.78828 20.6873 5.75465 20.6679L5.26095 20.3834C5.22713 20.364 5.19358 20.3447 5.1603 20.3255C4.66663 20.0419 4.23339 19.7929 3.90813 19.4284C3.62373 19.1097 3.41021 18.7336 3.28267 18.325C3.13732 17.8594 3.14639 17.3601 3.1567 16.7928C3.15741 16.7533 3.15813 16.7136 3.15881 16.6735L3.16569 16.266C3.16695 16.1916 3.16705 16.1758 3.16682 16.1625C3.16414 16.0056 3.12454 15.8514 3.05115 15.7125C3.04561 15.702 3.04007 15.6923 3.00289 15.6274L3.00006 15.6224C2.96209 15.5561 2.95448 15.543 2.94751 15.5318C2.86356 15.3962 2.74905 15.283 2.61338 15.2013C2.60224 15.1946 2.58959 15.1875 2.52207 15.1499L2.16373 14.9506C2.12876 14.9311 2.09405 14.9119 2.05963 14.8928C1.56578 14.6189 1.13074 14.3776 0.80142 14.0204C0.512753 13.7074 0.293963 13.3364 0.159733 12.9321C0.00680862 12.4714 0.00634436 11.9744 0.00581793 11.4108C0.00578062 11.3708 0.00574301 11.3305 0.00565068 11.2899L0.00437389 10.7278C0.00428216 10.6874 0.00413899 10.6473 0.00399701 10.6076C0.00196509 10.0393 0.000175402 9.53877 0.152882 9.0746C0.286916 8.6672 0.506825 8.29369 0.796878 7.97898C1.12823 7.61946 1.56642 7.37736 2.06453 7.10215C2.09893 7.08314 2.13362 7.06397 2.16858 7.0446L2.53015 6.84423C2.5893 6.81145 2.60294 6.80367 2.61409 6.79702C2.75137 6.71516 2.86715 6.60142 2.95159 6.46537C2.95808 6.45492 2.96528 6.44271 3.00027 6.38213C3.03548 6.32118 3.04234 6.30908 3.04809 6.29835C3.12374 6.15727 3.1644 6.0003 3.16677 5.84061C3.16692 5.83035 3.16677 5.8212 3.16577 5.76202L3.15832 5.31947C3.15767 5.28098 3.15699 5.24281 3.15631 5.20496C3.14608 4.63686 3.1371 4.13844 3.28192 3.6731C3.40863 3.26592 3.62072 2.89057 3.90377 2.57198C4.22711 2.20805 4.65791 1.95872 5.14852 1.67478C5.1819 1.65547 5.21555 1.63599 5.24947 1.6163L5.73713 1.33327C5.7716 1.31326 5.80575 1.29338 5.83962 1.27367C6.33136 0.987439 6.76402 0.735594 7.24248 0.635659ZM11 7.99991C9.34312 7.99991 7.99998 9.34306 7.99998 10.9999C7.99998 12.6568 9.34312 13.9999 11 13.9999C12.6568 13.9999 14 12.6568 14 10.9999C14 9.34306 12.6568 7.99991 11 7.99991ZM5.99998 10.9999C5.99998 8.23849 8.23855 5.99991 11 5.99991C13.7614 5.99991 16 8.23849 16 10.9999C16 13.7613 13.7614 15.9999 11 15.9999C8.23855 15.9999 5.99998 13.7613 5.99998 10.9999Z" fill="currentColor"/>
</svg>
