<svg width="10" height="11" viewBox="0 0 10 11" fill="none" xmlns="http://www.w3.org/2000/svg">
<path fill-rule="evenodd" clip-rule="evenodd" d="M5 1.5C2.79086 1.5 1 3.29086 1 5.5C1 7.70914 2.79086 9.5 5 9.5C7.20914 9.5 9 7.70914 9 5.5C9 3.29086 7.20914 1.5 5 1.5ZM0 5.5C0 2.73858 2.23858 0.5 5 0.5C7.76142 0.5 10 2.73858 10 5.5C10 8.26142 7.76142 10.5 5 10.5C2.23858 10.5 0 8.26142 0 5.5ZM4.4751 3.5C4.4751 3.22386 4.69896 3 4.9751 3H5.0249C5.30104 3 5.5249 3.22386 5.5249 3.5V3.55C5.5249 3.68263 5.47221 3.80982 5.37841 3.9036C5.28462 3.99737 5.15741 4.05003 5.02478 4.05L4.97498 4.04999C4.69888 4.04992 4.4751 3.82608 4.4751 3.54999V3.5ZM5 4.5C5.27614 4.5 5.5 4.72386 5.5 5V7.5C5.5 7.77614 5.27614 8 5 8C4.72386 8 4.5 7.77614 4.5 7.5V5C4.5 4.72386 4.72386 4.5 5 4.5Z" fill="currentColor"/>
</svg>
