<svg width="16" height="16" viewBox="0 0 16 16" fill="none" xmlns="http://www.w3.org/2000/svg">
<path fill-rule="evenodd" clip-rule="evenodd" d="M4.16168 8.60083e-07H11.8388C12.3659 -1.70213e-05 12.8206 -3.25181e-05 13.1951 0.0305732C13.5904 0.0628819 13.9835 0.134216 14.3618 0.326982C14.9259 0.614394 15.3854 1.07316 15.6732 1.63805C15.8661 2.01653 15.9373 2.40983 15.9696 2.80511C16 3.179 16 3.63288 16 4.15884V11.8411C16 12.367 16 12.8209 15.9696 13.1949C15.9373 13.5902 15.8661 13.9835 15.6732 14.362C15.3854 14.927 14.9257 15.3856 14.3618 15.673C13.9835 15.8657 13.5904 15.9371 13.1951 15.9694C12.8205 16 12.3657 16 11.8384 16H4.16204C3.6347 16 3.17972 16 2.80496 15.9694C2.40959 15.9371 2.01623 15.8658 1.63781 15.673C1.07317 15.3853 0.614525 14.9264 0.326982 14.362C0.134181 13.9836 0.0628699 13.5904 0.0305708 13.195C-3.25181e-05 12.8204 -1.70213e-05 12.3656 8.60117e-07 11.8385V4.1614C-1.70213e-05 3.63426 -3.25181e-05 3.17951 0.0305716 2.80496C0.062874 2.40962 0.134193 2.01642 0.326982 1.63805C0.614471 1.07382 1.07306 0.614734 1.63781 0.326982C2.01625 0.134158 2.40962 0.0628619 2.80499 0.0305692C3.17965 -3.23988e-05 3.63451 -1.70213e-05 4.16168 8.60083e-07ZM2.9678 2.02393C2.69595 2.04614 2.59517 2.08383 2.54579 2.109C2.35789 2.20474 2.205 2.35761 2.109 2.54603C2.0838 2.59549 2.04612 2.6962 2.02393 2.96783C2.00078 3.25115 2 3.6234 2 4.19995V11.8C2 12.3765 2.00078 12.7488 2.02393 13.0322C2.04613 13.3039 2.08381 13.4046 2.109 13.454C2.20495 13.6424 2.35778 13.7952 2.54579 13.891C2.59519 13.9161 2.69598 13.9538 2.96782 13.9761C3.25127 13.9992 3.62367 14 4.2002 14H11.8002C12.3767 14 12.7489 13.9992 13.0321 13.9761C13.3036 13.9539 13.4043 13.9162 13.4538 13.891C13.6425 13.7948 13.7956 13.6417 13.8912 13.454C13.9164 13.4047 13.954 13.3041 13.9762 13.0323C13.9993 12.7489 14 12.3766 14 11.8V4.19995C14 3.6233 13.9993 3.25105 13.9762 2.96767C13.954 2.69598 13.9164 2.59537 13.8912 2.54603C13.7956 2.35828 13.6424 2.20508 13.4538 2.109C13.4043 2.08377 13.3036 2.04612 13.0321 2.02393C12.7489 2.00078 12.3768 2 11.8002 2H4.2002C3.62365 2 3.25126 2.00078 2.9678 2.02393Z" fill="currentColor"/>
</svg>
