<svg width="17" height="21" viewBox="0 0 17 21" fill="none" xmlns="http://www.w3.org/2000/svg">
<path d="M5.5 3.29199H3.5C2.39543 3.29199 1.5 4.18742 1.5 5.29199V17.292C1.5 18.3966 2.39543 19.292 3.5 19.292H13.5C14.6046 19.292 15.5 18.3966 15.5 17.292V5.29199C15.5 4.18742 14.6046 3.29199 13.5 3.29199H11.5M5.5 3.29199C5.5 4.39656 6.39543 5.29199 7.5 5.29199H9.5C10.6046 5.29199 11.5 4.39656 11.5 3.29199M5.5 3.29199C5.5 2.18742 6.39543 1.29199 7.5 1.29199H9.5C10.6046 1.29199 11.5 2.18742 11.5 3.29199M8.5 10.292H11.5M8.5 14.292H11.5M5.5 10.292H5.51M5.5 14.292H5.51" stroke="currentColor" stroke-width="1.5" stroke-linecap="round"/>
</svg>
