<svg width="18" height="20" viewBox="0 0 18 20" fill="none" xmlns="http://www.w3.org/2000/svg">
<path fill-rule="evenodd" clip-rule="evenodd" d="M7.96803 5.86018e-07H10.032C10.4706 -1.16925e-05 10.8491 -2.25399e-05 11.1624 0.021351C11.4922 0.043855 11.8221 0.0933587 12.1481 0.228363C12.8832 0.532878 13.4671 1.11693 13.7715 1.85194C13.9065 2.1778 13.9561 2.50766 13.9786 2.83752C13.9822 2.88987 13.9851 2.94404 13.9876 3H17C17.5523 3 18 3.44772 18 4C18 4.55229 17.5523 5 17 5H16L16 15.8411C16 16.3671 16 16.821 15.9696 17.1949C15.9373 17.5902 15.8661 17.9835 15.6732 18.362C15.3854 18.927 14.9257 19.3856 14.3618 19.673C13.9835 19.8657 13.5904 19.9371 13.1951 19.9694C12.8205 20 12.3657 20 11.8384 20H6.16208C5.63472 20 5.17973 20 4.80496 19.9694C4.40959 19.9371 4.01623 19.8658 3.63781 19.673C3.07317 19.3853 2.61452 18.9264 2.32698 18.362C2.13418 17.9836 2.06287 17.5904 2.03057 17.1951C1.99997 16.8205 1.99998 16.3657 2 15.8385L2 5H1C0.447715 5 0 4.55229 0 4C0 3.44772 0.447715 3 1 3H4.01233C4.01481 2.94407 4.01778 2.88993 4.02135 2.83761C4.04385 2.50778 4.09336 2.17787 4.22836 1.85194C4.53275 1.11707 5.11639 0.532936 5.85169 0.228363C6.17766 0.0933434 6.50766 0.0438497 6.8375 0.0213499C7.15082 -2.25399e-05 7.52937 -1.16925e-05 7.96803 5.86018e-07ZM6.015 3H11.985C11.9844 2.99118 11.9838 2.98247 11.9832 2.97385C11.9677 2.74587 11.941 2.65898 11.9238 2.6173C11.8222 2.37219 11.6276 2.17758 11.3827 2.07612C11.3411 2.05888 11.2542 2.03227 11.0262 2.01671C10.7893 2.00054 10.4796 2 10 2H8C7.52038 2 7.21067 2.00054 6.97362 2.01671C6.7455 2.03227 6.65864 2.0589 6.61706 2.07612C6.37225 2.17752 6.17771 2.37205 6.07612 2.6173C6.05888 2.65892 6.03227 2.74575 6.01671 2.97375C6.01612 2.9824 6.01555 2.99115 6.015 3ZM4 5V15.8C4 16.3766 4.00078 16.7488 4.02393 17.0322C4.04612 17.3039 4.0838 17.4046 4.10899 17.454C4.20494 17.6424 4.35778 17.7952 4.54579 17.891C4.59519 17.9161 4.69598 17.9538 4.96782 17.9761C5.25127 17.9992 5.62367 18 6.2002 18H11.8002C12.3767 18 12.7489 17.9992 13.0321 17.9761C13.3036 17.9539 13.4043 17.9162 13.4538 17.891C13.6425 17.7948 13.7956 17.6417 13.8912 17.454C13.9164 17.4047 13.954 17.3041 13.9762 17.0324C13.9993 16.7489 14 16.3767 14 15.8V5H4Z" fill="currentColor"/>
</svg>
