<svg width="23" height="19" viewBox="0 0 23 19" fill="none" xmlns="http://www.w3.org/2000/svg">
<path d="M16.5 17.292H21.5V15.292C21.5 13.6351 20.1569 12.292 18.5 12.292C17.5444 12.292 16.6931 12.7388 16.1438 13.4349M16.5 17.292H6.5M16.5 17.292V15.292C16.5 14.6358 16.3736 14.009 16.1438 13.4349M6.5 17.292H1.5V15.292C1.5 13.6351 2.84315 12.292 4.5 12.292C5.45561 12.292 6.30686 12.7388 6.85625 13.4349M6.5 17.292V15.292C6.5 14.6358 6.62642 14.009 6.85625 13.4349M6.85625 13.4349C7.5935 11.593 9.39482 10.292 11.5 10.292C13.6052 10.292 15.4065 11.593 16.1438 13.4349M14.5 4.29199C14.5 5.94885 13.1569 7.29199 11.5 7.29199C9.84315 7.29199 8.5 5.94885 8.5 4.29199C8.5 2.63514 9.84315 1.29199 11.5 1.29199C13.1569 1.29199 14.5 2.63514 14.5 4.29199ZM20.5 7.29199C20.5 8.39656 19.6046 9.29199 18.5 9.29199C17.3954 9.29199 16.5 8.39656 16.5 7.29199C16.5 6.18742 17.3954 5.29199 18.5 5.29199C19.6046 5.29199 20.5 6.18742 20.5 7.29199ZM6.5 7.29199C6.5 8.39656 5.60457 9.29199 4.5 9.29199C3.39543 9.29199 2.5 8.39656 2.5 7.29199C2.5 6.18742 3.39543 5.29199 4.5 5.29199C5.60457 5.29199 6.5 6.18742 6.5 7.29199Z" stroke="currentColor" stroke-width="1.5" stroke-linecap="round" stroke-linejoin="round"/>
</svg>
