<svg width="19" height="13" viewBox="0 0 19 13" fill="none" xmlns="http://www.w3.org/2000/svg">
<path fill-rule="evenodd" clip-rule="evenodd" d="M7.20711 0.584885C7.59763 0.97541 7.59763 1.60857 7.20711 1.9991L2.91421 6.29199L7.20711 10.5849C7.59763 10.9754 7.59763 11.6086 7.20711 11.9991C6.81658 12.3896 6.18342 12.3896 5.79289 11.9991L0.792893 6.9991C0.402369 6.60857 0.402369 5.97541 0.792893 5.58489L5.79289 0.584885C6.18342 0.194361 6.81658 0.194361 7.20711 0.584885ZM11.7929 0.584885C12.1834 0.194361 12.8166 0.194361 13.2071 0.584885L18.2071 5.58489C18.5976 5.97541 18.5976 6.60857 18.2071 6.9991L13.2071 11.9991C12.8166 12.3896 12.1834 12.3896 11.7929 11.9991C11.4024 11.6086 11.4024 10.9754 11.7929 10.5849L16.0858 6.29199L11.7929 1.9991C11.4024 1.60857 11.4024 0.97541 11.7929 0.584885Z" fill="currentColor"/>
</svg>
