<svg width="10" height="10" viewBox="0 0 10 10" fill="none" xmlns="http://www.w3.org/2000/svg">
<path fill-rule="evenodd" clip-rule="evenodd" d="M1.07733 1.07757C1.40277 0.752137 1.9304 0.752137 2.25584 1.07757L4.99993 3.82166L7.74402 1.07757C8.06945 0.752137 8.59709 0.752137 8.92253 1.07757C9.24796 1.40301 9.24796 1.93065 8.92253 2.25609L6.17844 5.00017L8.92249 7.74422C9.24793 8.06966 9.24793 8.5973 8.92249 8.92273C8.59705 9.24817 8.06942 9.24817 7.74398 8.92273L4.99993 6.17868L2.25584 8.92277C1.9304 9.24821 1.40277 9.24821 1.07733 8.92277C0.751893 8.59733 0.751893 8.0697 1.07733 7.74426L3.82142 5.00017L1.07733 2.25609C0.751893 1.93065 0.751893 1.40301 1.07733 1.07757Z" fill="currentColor"/>
</svg>
